<svg viewBox="0 0 300 80" xmlns="http://www.w3.org/2000/svg">
    <defs>
        <linearGradient id="gradientM" x1="0%" y1="0%" x2="100%" y2="100%">
            <stop offset="0%" style="stop-color:#FF6B9D;stop-opacity:1" />
            <stop offset="100%" style="stop-color:#FF8E8E;stop-opacity:1" />
        </linearGradient>

        <linearGradient id="gradientY" x1="0%" y1="0%" x2="100%" y2="100%">
            <stop offset="0%" style="stop-color:#FFD93D;stop-opacity:1" />
            <stop offset="100%" style="stop-color:#FFA500;stop-opacity:1" />
        </linearGradient>

        <linearGradient id="gradientQ" x1="0%" y1="0%" x2="100%" y2="100%">
            <stop offset="0%" style="stop-color:#6BCF7F;stop-opacity:1" />
            <stop offset="100%" style="stop-color:#4CAF50;stop-opacity:1" />
        </linearGradient>

        <linearGradient id="gradientU" x1="0%" y1="0%" x2="100%" y2="100%">
            <stop offset="0%" style="stop-color:#4ECDC4;stop-opacity:1" />
            <stop offset="100%" style="stop-color:#44A08D;stop-opacity:1" />
        </linearGradient>

        <linearGradient id="gradientI" x1="0%" y1="0%" x2="100%" y2="100%">
            <stop offset="0%" style="stop-color:#667EEA;stop-opacity:1" />
            <stop offset="100%" style="stop-color:#764BA2;stop-opacity:1" />
        </linearGradient>

        <linearGradient id="gradientZ" x1="0%" y1="0%" x2="100%" y2="100%">
            <stop offset="0%" style="stop-color:#F093FB;stop-opacity:1" />
            <stop offset="100%" style="stop-color:#F5576C;stop-opacity:1" />
        </linearGradient>

        <filter id="dropshadow" x="-50%" y="-50%" width="200%" height="200%">
            <feGaussianBlur in="SourceAlpha" stdDeviation="3" />
            <feOffset dx="2" dy="4" result="offset" />
            <feComponentTransfer>
                <feFuncA type="linear" slope="0.3" />
            </feComponentTransfer>
            <feMerge>
                <feMergeNode />
                <feMergeNode in="SourceGraphic" />
            </feMerge>
        </filter>
    </defs>

    <path
        d="M 15 25 L 15 55 Q 15 60 20 60 L 25 60 Q 30 60 30 55 L 30 45 L 35 50 Q 37 52 39 52 Q 41 52 43 50 L 48 45 L 48 55 Q 48 60 53 60 L 58 60 Q 63 60 63 55 L 63 25 Q 63 20 58 20 L 53 20 Q 50 20 48 22 L 41 32 L 34 22 Q 32 20 29 20 L 20 20 Q 15 20 15 25 Z"
        fill="url(#gradientM)"
        stroke="#333"
        stroke-width="3"
        filter="url(#dropshadow)"
    />

    <path
        d="M 75 25 Q 75 20 80 20 L 85 20 Q 88 20 90 22 L 95 32 L 100 22 Q 102 20 105 20 L 110 20 Q 115 20 115 25 L 115 35 Q 115 38 113 40 L 105 50 L 105 55 Q 105 60 100 60 L 95 60 Q 90 60 90 55 L 90 50 L 82 40 Q 80 38 80 35 L 80 25 Q 80 20 85 20 L 80 20 Q 75 20 75 25 Z"
        fill="url(#gradientY)"
        stroke="#333"
        stroke-width="3"
        filter="url(#dropshadow)"
    />

    <path
        d="M 127 40 Q 127 30 135 25 Q 143 20 152 20 Q 161 20 169 25 Q 177 30 177 40 Q 177 50 169 55 Q 161 60 152 60 Q 143 60 135 55 Q 127 50 127 40 Z M 145 40 Q 145 45 152 45 Q 159 45 159 40 Q 159 35 152 35 Q 145 35 145 40 Z M 165 50 L 172 57 Q 175 60 170 60 Q 167 60 165 57 L 160 52"
        fill="url(#gradientQ)"
        stroke="#333"
        stroke-width="3"
        filter="url(#dropshadow)"
    />

    <path
        d="M 185 25 Q 185 20 190 20 L 195 20 Q 200 20 200 25 L 200 45 Q 200 50 205 50 Q 210 50 210 45 L 210 25 Q 210 20 215 20 L 220 20 Q 225 20 225 25 L 225 45 Q 225 55 215 60 Q 205 65 195 60 Q 185 55 185 45 L 185 25 Z"
        fill="url(#gradientU)"
        stroke="#333"
        stroke-width="3"
        filter="url(#dropshadow)"
    />

    <path
        d="M 237 25 Q 237 20 242 20 L 247 20 Q 252 20 252 25 L 252 55 Q 252 60 247 60 L 242 60 Q 237 60 237 55 L 237 25 Z M 242 15 Q 237 15 237 10 Q 237 5 242 5 Q 247 5 247 10 Q 247 15 242 15 Z"
        fill="url(#gradientI)"
        stroke="#333"
        stroke-width="3"
        filter="url(#dropshadow)"
    />

    <path
        d="M 264 25 Q 264 20 269 20 L 289 20 Q 294 20 294 25 Q 294 28 292 30 L 278 45 L 289 45 Q 294 45 294 50 Q 294 55 289 55 L 269 55 Q 264 55 264 50 Q 264 47 266 45 L 280 30 L 269 30 Q 264 30 264 25 Z"
        fill="url(#gradientZ)"
        stroke="#333"
        stroke-width="3"
        filter="url(#dropshadow)"
    />

    <circle cx="39" cy="12" r="3" fill="#FFD93D" opacity="0.8" />
    <circle cx="95" cy="68" r="4" fill="#4ECDC4" opacity="0.6" />
    <circle cx="152" cy="15" r="2" fill="#FF6B9D" opacity="0.7" />
    <circle cx="205" cy="12" r="3" fill="#6BCF7F" opacity="0.8" />
    <circle cx="275" cy="68" r="2" fill="#667EEA" opacity="0.9" />

    <ellipse cx="50" cy="25" rx="8" ry="4" fill="white" opacity="0.3" transform="rotate(-15 50 25)" />
    <ellipse cx="152" cy="30" rx="10" ry="5" fill="white" opacity="0.4"
        transform="rotate(-20 152 30)" />
    <ellipse cx="244" cy="28" rx="6" ry="3" fill="white" opacity="0.5"
        transform="rotate(-10 244 28)" />
</svg>